<svg width="373" height="373" viewBox="0 0 373 373" fill="none" xmlns="http://www.w3.org/2000/svg">
<g clip-path="url(#clip0_447_2)">
<path d="M81.5937 139.875C70.0668 139.875 58.7987 136.457 49.2144 130.053C39.6301 123.649 32.1601 114.547 27.7489 103.897C23.3377 93.2475 22.1836 81.5291 24.4324 70.2237C26.6811 58.9182 32.2319 48.5335 40.3827 40.3827C48.5335 32.2319 58.9182 26.6812 70.2236 24.4324C81.5291 22.1836 93.2475 23.3378 103.897 27.7489C114.547 32.1601 123.649 39.6301 130.053 49.2144C136.457 58.7988 139.875 70.0668 139.875 81.5938H116.562C116.562 74.6776 114.512 67.9168 110.669 62.1662C106.827 56.4156 101.365 51.9336 94.9757 49.2869C88.586 46.6402 81.555 45.9477 74.7717 47.2969C67.9884 48.6462 61.7576 51.9767 56.8671 56.8671C51.9766 61.7576 48.6462 67.9884 47.2969 74.7717C45.9476 81.555 46.6401 88.586 49.2868 94.9757C51.9335 101.365 56.4156 106.827 62.1661 110.669C67.9167 114.512 74.6776 116.563 81.5937 116.563V139.875Z" fill="white"/>
<path d="M291.406 139.875V116.563C298.322 116.563 305.083 114.512 310.834 110.669C316.584 106.827 321.066 101.365 323.713 94.9757C326.36 88.586 327.052 81.555 325.703 74.7717C324.354 67.9884 321.023 61.7576 316.133 56.8671C311.242 51.9767 305.012 48.6462 298.228 47.2969C291.445 45.9477 284.414 46.6402 278.024 49.2869C271.635 51.9336 266.173 56.4156 262.331 62.1662C258.488 67.9168 256.438 74.6776 256.438 81.5938H233.125C233.125 70.0668 236.543 58.7988 242.947 49.2144C249.351 39.6301 258.453 32.1601 269.103 27.7489C279.752 23.3378 291.471 22.1836 302.776 24.4324C314.082 26.6812 324.467 32.2319 332.617 40.3827C340.768 48.5335 346.319 58.9182 348.568 70.2237C350.816 81.5291 349.662 93.2475 345.251 103.897C340.84 114.547 333.37 123.649 323.786 130.053C314.201 136.457 302.933 139.875 291.406 139.875Z" fill="white"/>
<path d="M81.5938 349.688C66.1366 349.688 51.3125 343.547 40.3827 332.617C29.4528 321.687 23.3125 306.863 23.3125 291.406C23.3125 275.949 29.4528 261.125 40.3827 250.195C51.3125 239.265 66.1366 233.125 81.5938 233.125V256.438C74.6776 256.437 67.9167 258.488 62.1662 262.331C56.4156 266.173 51.9335 271.635 49.2868 278.024C46.6401 284.414 45.9476 291.445 47.2969 298.228C48.6462 305.012 51.9766 311.242 56.8671 316.133C61.7576 321.023 67.9884 324.354 74.7717 325.703C81.555 327.052 88.586 326.36 94.9757 323.713C101.365 321.066 106.827 316.584 110.669 310.834C114.512 305.083 116.562 298.322 116.562 291.406H139.875C139.858 306.858 133.712 321.672 122.786 332.599C111.86 343.525 97.0457 349.671 81.5938 349.688Z" fill="white"/>
<path d="M291.406 349.688C275.954 349.671 261.14 343.525 250.214 332.599C239.288 321.672 233.142 306.858 233.125 291.406H256.438C256.437 298.322 258.488 305.083 262.331 310.834C266.173 316.584 271.635 321.066 278.024 323.713C284.414 326.36 291.445 327.052 298.228 325.703C305.012 324.354 311.242 321.023 316.133 316.133C321.023 311.242 324.354 305.012 325.703 298.228C327.052 291.445 326.36 284.414 323.713 278.024C321.066 271.635 316.584 266.173 310.834 262.331C305.083 258.488 298.322 256.438 291.406 256.438V233.125C306.863 233.125 321.687 239.265 332.617 250.195C343.547 261.125 349.688 275.949 349.688 291.406C349.688 306.863 343.547 321.687 332.617 332.617C321.687 343.547 306.863 349.688 291.406 349.688Z" fill="white"/>
<path d="M233.125 216.642V156.358L299.647 89.8347C300.761 88.7594 301.649 87.4732 302.259 86.0511C302.87 84.629 303.192 83.0995 303.205 81.5518C303.219 80.0041 302.924 78.4692 302.338 77.0367C301.752 75.6042 300.886 74.3027 299.792 73.2083C298.697 72.1138 297.396 71.2483 295.963 70.6622C294.531 70.0762 292.996 69.7812 291.448 69.7947C289.901 69.8081 288.371 70.1297 286.949 70.7406C285.527 71.3515 284.241 72.2395 283.165 73.3528L230.718 125.806C227.783 116.374 221.909 108.127 213.953 102.271C205.998 96.4144 196.378 93.2556 186.5 93.2556C176.622 93.2556 167.002 96.4144 159.047 102.271C151.091 108.127 145.217 116.374 142.282 125.806L89.8347 73.3528C88.7528 72.2699 87.4682 71.4109 86.0541 70.8248C84.6401 70.2387 83.1244 69.9371 81.5937 69.9371C80.0631 69.9371 78.5474 70.2387 77.1334 70.8248C75.7193 71.4109 74.4347 72.2699 73.3528 73.3528C72.2699 74.4346 71.4109 75.7193 70.8248 77.1333C70.2388 78.5474 69.9371 80.0631 69.9371 81.5937C69.9371 83.1244 70.2388 84.6401 70.8248 86.0541C71.4109 87.4682 72.2699 88.7528 73.3528 89.8347L139.875 156.358V216.642L73.3528 283.165C72.2699 284.247 71.4109 285.532 70.8248 286.946C70.2388 288.36 69.9371 289.876 69.9371 291.406C69.9371 292.937 70.2388 294.453 70.8248 295.867C71.4109 297.281 72.2699 298.565 73.3528 299.647C74.4347 300.73 75.7193 301.589 77.1334 302.175C78.5474 302.761 80.0631 303.063 81.5937 303.063C83.1244 303.063 84.6401 302.761 86.0541 302.175C87.4682 301.589 88.7528 300.73 89.8347 299.647L142.288 247.194C145.223 256.626 151.097 264.873 159.052 270.729C167.008 276.586 176.627 279.744 186.506 279.744C196.384 279.744 206.004 276.586 213.959 270.729C221.915 264.873 227.789 256.626 230.724 247.194L283.171 299.647C285.37 301.771 288.314 302.945 291.37 302.919C294.426 302.892 297.35 301.666 299.511 299.505C301.672 297.344 302.898 294.421 302.925 291.364C302.951 288.308 301.776 285.364 299.653 283.165L233.125 216.642ZM209.812 233.125C209.812 239.308 207.356 245.237 202.984 249.609C198.612 253.981 192.683 256.437 186.5 256.437C180.317 256.437 174.388 253.981 170.016 249.609C165.644 245.237 163.187 239.308 163.187 233.125V139.875C163.187 133.692 165.644 127.763 170.016 123.391C174.388 119.019 180.317 116.562 186.5 116.562C192.683 116.562 198.612 119.019 202.984 123.391C207.356 127.763 209.812 133.692 209.812 139.875V233.125Z" fill="white"/>
</g>
<defs>
<clipPath id="clip0_447_2">
<rect width="373" height="373" fill="white"/>
</clipPath>
</defs>
</svg>
