<svg width="407" height="338" viewBox="0 0 407 338" fill="none" xmlns="http://www.w3.org/2000/svg">
<path d="M386.05 1.00002C386.2 1.00002 386.4 1.00002 386.6 1.00002C391.825 1.00002 396.675 2.625 400.65 5.425L400.575 5.37502C403.475 7.90002 405.425 11.45 405.9 15.45V15.525C406.4 18.575 406.675 22.075 406.675 25.65C406.675 27.275 406.625 28.875 406.5 30.475V30.25C400.875 89.475 376.475 233.1 364.075 299.4C358.825 327.475 348.5 336.875 338.5 337.775C316.775 339.8 300.275 323.425 279.225 309.625C246.275 288 227.65 274.55 195.675 253.475C158.7 229.15 182.675 215.725 203.725 193.875C209.25 188.125 305.025 101 306.9 93.1C307 92.625 307.05 92.1 307.05 91.55C307.05 89.6 306.325 87.825 305.15 86.475C303.85 85.625 302.225 85.15 300.525 85.15C299.4 85.15 298.325 85.375 297.325 85.75L297.375 85.725C294.075 86.475 241.442 121.258 139.475 190.075C128.35 198.85 114.3 204.4 99.0001 205.05H98.85C77.1789 202.425 57.5071 197.602 38.8351 190.729C38.8318 190.727 38.8284 190.726 38.825 190.725L38.8351 190.729L39.0553 190.8L40.6751 191.325C40.1325 191.148 39.5925 190.973 39.0553 190.8C38.9819 190.776 38.9085 190.752 38.8351 190.729C16.2594 183.457 -1.35789 179.309 0.200033 166.7C1.05003 159.967 10.3334 153.075 28.05 146.025C137.183 98.475 209.958 67.1333 246.375 52C286.55 30.675 333.125 13.125 382.1 1.75L386.025 0.975006L386.05 1.00002Z" fill="white"/>
<path d="M386.6 1.00002H386.05L386.025 0.975006L382.1 1.75C333.125 13.125 286.55 30.675 246.375 52C209.958 67.1333 137.183 98.475 28.05 146.025C10.3334 153.075 1.05003 159.967 0.200033 166.7C-1.35789 179.309 16.2594 183.457 38.8351 190.729C38.8318 190.727 38.8284 190.726 38.825 190.725L39.0553 190.8C39.5925 190.973 40.1325 191.148 40.6751 191.325L39.0553 190.8C38.9819 190.776 38.9085 190.752 38.8351 190.729C57.5071 197.602 77.1789 202.425 98.85 205.05H99.0001C114.3 204.4 128.35 198.85 139.475 190.075C241.442 121.258 294.075 86.475 297.375 85.725L297.325 85.75C298.325 85.375 299.4 85.15 300.525 85.15C302.225 85.15 303.85 85.625 305.15 86.475C306.325 87.825 307.05 89.6 307.05 91.55C307.05 92.1 307 92.625 306.9 93.1C305.025 101 209.25 188.125 203.725 193.875C182.675 215.725 158.7 229.15 195.675 253.475C227.65 274.55 246.275 288 279.225 309.625C300.275 323.425 316.775 339.8 338.5 337.775C348.5 336.875 358.825 327.475 364.075 299.4C376.475 233.1 400.875 89.475 406.5 30.25V30.475C406.625 28.875 406.675 27.275 406.675 25.65C406.675 22.075 406.4 18.575 405.9 15.525V15.45C405.425 11.45 403.475 7.90002 400.575 5.37502L400.65 5.425C396.675 2.625 391.825 1.00002 386.6 1.00002Z" fill="black"/>
</svg>
