<svg width="48" height="48" viewBox="0 0 48 48" fill="none" xmlns="http://www.w3.org/2000/svg">
<path d="M29.62 3L33.053 8.308L39.367 8.624L39.686 14.937L44.997 18.367L42.116 23.995L45 29.62L39.692 33.053L39.376 39.367L33.063 39.686L29.633 44.997L24.005 42.116L18.38 45L14.947 39.692L8.633 39.376L8.314 33.063L3.003 29.633L5.884 24.005L3 18.38L8.308 14.947L8.624 8.633L14.937 8.314L18.367 3.003L23.995 5.884L29.62 3Z" fill="#30AA1C"/>
<path d="M21.3959 31.255L14.8989 24.76L17.0209 22.639L21.4279 27.046L30.9959 17.772L33.0839 19.926L21.3959 31.255Z" fill="white"/>
</svg>
