<svg width="1456" height="1438" viewBox="0 0 1456 1438" fill="none" xmlns="http://www.w3.org/2000/svg">
<rect x="23.5" y="302" width="1108" height="1112" rx="86.5" stroke="white" stroke-width="47"/>
<path d="M864 316.5L364 823L227 1199.5L613 1093L1124.5 581.5L1276.75 429.25L1021.5 171.75L864 316.5Z" fill="white"/>
<path d="M1429 277L1179 27L1021.5 171.75L1276.75 429.25L1429 277Z" fill="white"/>
<path d="M1021.5 171.75L1179 27L1429 277L1276.75 429.25M1021.5 171.75L864 316.5L364 823L227 1199.5L613 1093L1124.5 581.5L1276.75 429.25M1021.5 171.75L1276.75 429.25" stroke="#9A9A9A" stroke-width="53" stroke-linecap="round" stroke-linejoin="round"/>
<path d="M367 822L620.5 1080" stroke="#9A9A9A" stroke-width="53" stroke-linecap="round" stroke-linejoin="round"/>
</svg>
