<svg width="39" height="41" viewBox="0 0 39 41" fill="none" xmlns="http://www.w3.org/2000/svg">
<path d="M35.683 19.171H35.1351C33.4391 19.171 32.0762 20.5869 31.7627 22.2537C31.1518 25.5022 29.4027 29.6837 25.318 31.726C19.8171 34.4764 13.9563 33.0885 10.4193 31.2347C9.02401 30.5033 7.22162 30.552 6.10764 31.6659C4.94567 32.8279 3.99574 34.0709 5.25397 35.1279C8.4309 37.7966 15.8519 42.3095 25.318 39.0254C34.9423 35.6863 37.9464 27.4338 38.4272 21.9408C38.5638 20.3809 37.2489 19.171 35.683 19.171Z" fill="#31123C" stroke="#31123C"/>
<path d="M0.5 37.7792V26.5946C0.5 26.0423 0.947716 25.5946 1.5 25.5946H12.6846C13.5755 25.5946 14.0217 26.6717 13.3917 27.3017L2.20711 38.4863C1.57714 39.1163 0.5 38.6701 0.5 37.7792Z" fill="#31123C" stroke="#31123C"/>
<path d="M3.31698 21.507L3.86487 21.507C5.5609 21.507 6.92383 20.0911 7.23728 18.4242C7.84818 15.1758 9.59735 10.9943 13.682 8.95199C19.1829 6.20153 25.0437 7.58944 28.5807 9.44331C29.976 10.1747 31.7784 10.126 32.8924 9.01205C34.0543 7.8501 35.0043 6.60708 33.746 5.55012C30.5691 2.8814 23.1481 -1.63157 13.682 1.65259C4.05769 4.99163 1.05362 13.2442 0.572754 18.7372C0.436199 20.2971 1.7511 21.507 3.31698 21.507Z" fill="#31123C" stroke="#31123C"/>
<path d="M38.5 2.89879L38.5 14.0834C38.5 14.6357 38.0523 15.0834 37.5 15.0834L26.3154 15.0834C25.4245 15.0834 24.9783 14.0062 25.6083 13.3763L36.7929 2.19168C37.4229 1.56172 38.5 2.00789 38.5 2.89879Z" fill="#31123C" stroke="#31123C"/>
</svg>
